<svg width="455" height="292" viewBox="0 0 455 292" fill="none" xmlns="http://www.w3.org/2000/svg">
<g opacity="0.5">
<path fill-rule="evenodd" clip-rule="evenodd" d="M567.743 -88.1719C581.849 -10.2488 537.347 61.3131 487.628 122.981C438.086 184.431 377.676 243.241 298.759 245.459C217.442 247.744 142.551 200.24 95.3769 134.007C51.0341 71.7488 40.3384 -9.74447 65.6104 -81.8864C88.0672 -145.992 154.484 -173.952 214.451 -205.904C280.009 -240.835 346.21 -292.425 416.677 -268.942C495.079 -242.815 553.027 -169.46 567.743 -88.1719Z" fill="#BFBEFC"/>
<path d="M364.134 33.8097C361.865 28.0929 358.238 23.015 353.565 19.0152C350.008 15.9698 345.926 13.6193 341.533 12.0706C339.247 11.2645 337.753 8.93757 338.289 6.57341C338.825 4.20924 341.185 2.70739 343.488 3.46332C349.267 5.35977 354.633 8.37294 359.274 12.3463C365.03 17.2735 369.499 23.5289 372.294 30.5713C375.089 37.6137 376.126 45.2311 375.315 52.7644C374.662 58.8392 372.822 64.7119 369.917 70.0547C368.759 72.1844 366.011 72.7097 364 71.3566C361.988 70.0035 361.48 67.2852 362.591 65.1308C364.727 60.9912 366.086 56.4813 366.587 51.8252C367.245 45.71 366.403 39.5265 364.134 33.8097Z" fill="#AF05FA"/>
<path fill-rule="evenodd" clip-rule="evenodd" d="M294.035 218.14C277.771 221.802 261.564 211.35 257.837 194.795C254.11 178.24 264.273 161.851 280.538 158.189C296.802 154.527 313.009 164.979 316.736 181.534C320.463 198.089 310.3 214.478 294.035 218.14ZM291.625 207.434C281.451 209.725 270.979 203.206 268.542 192.385C266.106 181.563 272.774 171.185 282.948 168.895C293.122 166.604 303.594 173.123 306.03 183.945C308.467 194.766 301.799 205.144 291.625 207.434Z" fill="#0576F0"/>
<path d="M191.949 24.2827C191.715 22.1838 189.297 21.1248 187.596 22.3765L158.51 43.78C156.809 45.0317 157.101 47.6553 159.036 48.5025L192.115 62.99C194.049 63.8373 196.175 62.2727 195.942 60.1738L191.949 24.2827Z" fill="#EE6D00"/>
<path d="M91.8332 194.359C89.9475 195.883 89.6539 198.646 91.1774 200.532C92.7009 202.418 95.4645 202.711 97.3502 201.188L115.457 186.559C117.343 185.035 117.636 182.272 116.113 180.386L104.242 165.693L118.935 153.823C120.821 152.299 121.114 149.536 119.591 147.65L107.72 132.957L122.413 121.087C124.299 119.563 124.592 116.799 123.069 114.914C121.545 113.028 118.782 112.734 116.896 114.258L98.789 128.887C96.9033 130.411 96.6097 133.174 98.1332 135.06L110.004 149.753L95.3111 161.623C93.4254 163.147 93.1318 165.91 94.6553 167.796L106.526 182.489L91.8332 194.359Z" fill="#AA33FF"/>
</g>
</svg>
