<svg width="248" height="588" viewBox="0 0 248 588" fill="none" xmlns="http://www.w3.org/2000/svg">
<g opacity="0.5">
<path fill-rule="evenodd" clip-rule="evenodd" d="M-21.4409 57.2098C57.6778 60.5626 117.718 119.696 166.96 181.746C216.027 243.575 260.132 315.427 244.963 392.903C229.333 472.738 166.54 535.365 91.5619 566.84C21.0847 596.426 -60.7678 588.961 -125.597 548.461C-183.205 512.472 -195.895 441.536 -213.895 376.016C-233.574 304.386 -269.363 228.47 -230.977 164.882C-188.268 94.1334 -103.976 53.7121 -21.4409 57.2098Z" fill="#BFBEFC"/>
<path d="M52.8414 282.638C46.7659 283.596 41.0152 286.02 36.0869 289.7C32.3344 292.501 29.1448 295.967 26.669 299.913C25.3805 301.966 22.7822 302.913 20.5935 301.87C18.4048 300.828 17.458 298.196 18.7014 296.115C21.8207 290.894 25.9389 286.321 30.8347 282.665C36.9058 278.132 43.99 275.147 51.4743 273.967C58.9586 272.787 66.6177 273.448 73.789 275.894C79.5719 277.866 84.8972 280.95 89.4715 284.958C91.2948 286.555 91.2038 289.351 89.4419 291.016C87.68 292.681 84.9166 292.58 83.0588 291.023C79.4893 288.03 75.3881 285.714 70.9557 284.203C65.1343 282.218 58.9169 281.681 52.8414 282.638Z" fill="#AF05FA"/>
<path fill-rule="evenodd" clip-rule="evenodd" d="M217.274 391.512C217.274 408.184 203.517 421.699 186.548 421.699C169.579 421.699 155.823 408.184 155.823 391.512C155.823 374.84 169.579 361.325 186.548 361.325C203.517 361.325 217.274 374.84 217.274 391.512ZM206.3 391.512C206.3 401.941 197.641 410.725 186.548 410.725C175.455 410.725 166.796 401.941 166.796 391.512C166.796 381.083 175.455 372.299 186.548 372.299C197.641 372.299 206.3 381.083 206.3 391.512Z" fill="#0576F0"/>
<path d="M62.2658 103.322C60.6041 105.087 60.688 107.865 62.453 109.527L88.0206 133.597C89.7857 135.259 92.5636 135.175 94.2253 133.41L118.295 107.842C119.957 106.077 119.873 103.299 118.108 101.638L92.5406 77.5675C90.7755 75.9058 87.9975 75.9896 86.3359 77.7547L62.2658 103.322Z" fill="#E3026F"/>
<circle cx="-12.8319" cy="13.1681" r="13.1681" fill="#E61B00"/>
<path d="M5.72827 448.527C3.62934 448.294 2.06507 450.42 2.91258 452.354L17.405 485.431C18.2525 487.365 20.8761 487.657 22.1276 485.956L43.5268 456.867C44.7782 455.165 43.7188 452.748 41.6199 452.514L5.72827 448.527Z" fill="#EE6D00"/>
<path d="M149.662 583.553C150.734 585.727 153.366 586.621 155.54 585.549C157.715 584.477 158.608 581.845 157.536 579.671L147.241 558.793C146.169 556.619 143.537 555.725 141.363 556.797L124.422 565.151L116.068 548.21C114.996 546.035 112.364 545.142 110.19 546.214L93.249 554.568L84.8953 537.626C83.8232 535.452 81.1916 534.559 79.0173 535.631C76.8431 536.703 75.9497 539.335 77.0218 541.509L87.3166 562.387C88.3887 564.561 91.0204 565.455 93.1946 564.382L110.136 556.029L118.489 572.97C119.562 575.144 122.193 576.038 124.367 574.966L141.309 566.612L149.662 583.553Z" fill="#AA33FF"/>
<path d="M8.13695 157.63C10.5299 157.242 12.1552 154.988 11.7672 152.595C11.3793 150.202 9.12488 148.577 6.73194 148.965L-16.2462 152.69C-18.6391 153.078 -20.2645 155.333 -19.8765 157.726L-16.8534 176.371L-35.4987 179.394C-37.8917 179.782 -39.517 182.037 -39.129 184.429L-36.106 203.075L-54.7513 206.098C-57.1442 206.486 -58.7696 208.74 -58.3816 211.133C-57.9936 213.526 -55.7392 215.151 -53.3463 214.763L-30.3682 211.038C-27.9752 210.65 -26.3499 208.396 -26.7379 206.003L-29.7609 187.357L-11.1156 184.334C-8.72266 183.946 -7.09732 181.692 -7.4853 179.299L-10.5084 160.654L8.13695 157.63Z" fill="#AA33FF"/>
</g>
</svg>
